<svg xmlns="http://www.w3.org/2000/svg" width="140.191" height="54.935" viewBox="0 0 140.191 54.935">
  <g id="logo_nav_desk" transform="translate(-832.2 -490.5)">
    <g id="Group_8569" data-name="Group 8569" transform="translate(832.2 490.5)">
      <path id="Path_65" data-name="Path 65" d="M33.955-63.325H22.1v31.054h-9V-63.325H1.2v-7.9H33.955Zm24.141-7.9h8.12l14.21,38.955H71.209l-3.018-8.724H56.066L53.1-32.271H43.886ZM66.71-47.194,62.156-60.966,57.492-47.194Zm56.347,11.083A14.651,14.651,0,0,1,112.8-32a18.232,18.232,0,0,1-7.242-1.454A18.115,18.115,0,0,1,99.6-37.538a19.275,19.275,0,0,1-4.033-6.337,21.748,21.748,0,0,1-1.481-8.148,19.54,19.54,0,0,1,1.481-7.571,19.164,19.164,0,0,1,4.087-6.2,19.354,19.354,0,0,1,6.172-4.17A19.207,19.207,0,0,1,113.51-71.5,19.086,19.086,0,0,1,123-69.223,14.8,14.8,0,0,1,129.092-63L122.4-57.948a9.579,9.579,0,0,0-3.813-4.087,10.553,10.553,0,0,0-5.4-1.454,9.125,9.125,0,0,0-4.088.905,9.357,9.357,0,0,0-3.155,2.524,11.808,11.808,0,0,0-2.03,3.758,14.487,14.487,0,0,0-.713,4.609,13.709,13.709,0,0,0,.768,4.664,11.377,11.377,0,0,0,2.14,3.7,9.754,9.754,0,0,0,3.265,2.442,9.856,9.856,0,0,0,4.2.878q5.267,0,9.492-4.883V-46.1h-7.571v-6.529h15.033v20.355h-7.462Z" transform="translate(-1.2 71.5)" fill="#fff"/>
      <circle id="Ellipse_18" data-name="Ellipse 18" cx="3.249" cy="3.249" r="3.249" transform="translate(25.149 32.528)" fill="#fff"/>
      <path id="Path_66" data-name="Path 66" d="M3.292,0A3.292,3.292,0,1,1,0,3.292,3.292,3.292,0,0,1,3.292,0Z" transform="translate(83.286 32.645)" fill="#fff"/>
      <circle id="Ellipse_20" data-name="Ellipse 20" cx="3.249" cy="3.249" r="3.249" transform="translate(133.694 32.528)" fill="#fff"/>
    </g>
    <g id="Group_8564" data-name="Group 8564" transform="translate(874.888 537.773)">
      <path id="Path_51" data-name="Path 51" d="M887.892,243.736a4.029,4.029,0,0,1,.239-1.353,3.735,3.735,0,0,1,.7-1.21,3.532,3.532,0,0,1,1.131-.865,3.4,3.4,0,0,1,1.517-.328,3.168,3.168,0,0,1,1.73.456,2.839,2.839,0,0,1,1.072,1.189l-.754.487a2.17,2.17,0,0,0-.408-.6,2.092,2.092,0,0,0-.521-.393,2.257,2.257,0,0,0-.577-.212,2.835,2.835,0,0,0-.584-.064,2.31,2.31,0,0,0-1.109.26,2.565,2.565,0,0,0-.812.679,2.952,2.952,0,0,0-.494.945,3.53,3.53,0,0,0-.164,1.056,3.272,3.272,0,0,0,.2,1.13,3.121,3.121,0,0,0,.548.949,2.663,2.663,0,0,0,.828.659,2.255,2.255,0,0,0,1.039.244,2.639,2.639,0,0,0,.611-.075,2.2,2.2,0,0,0,.6-.238,2.535,2.535,0,0,0,.536-.414,2,2,0,0,0,.408-.6l.8.435a2.363,2.363,0,0,1-.5.748,3.191,3.191,0,0,1-.732.547,3.706,3.706,0,0,1-.865.339,3.559,3.559,0,0,1-.891.117,3.023,3.023,0,0,1-1.423-.339,3.789,3.789,0,0,1-1.12-.886,4.067,4.067,0,0,1-.731-1.242A4.016,4.016,0,0,1,887.892,243.736Z" transform="translate(-887.892 -239.969)" fill="#fff"/>
      <path id="Path_52" data-name="Path 52" d="M903.647,247.606a3.214,3.214,0,0,1-1.448-.324,3.578,3.578,0,0,1-1.12-.86,3.906,3.906,0,0,1-.721-1.225,4.045,4.045,0,0,1-.254-1.412,3.919,3.919,0,0,1,.27-1.443,3.984,3.984,0,0,1,.748-1.22,3.6,3.6,0,0,1,1.131-.844,3.23,3.23,0,0,1,1.416-.313,3.105,3.105,0,0,1,1.444.334,3.685,3.685,0,0,1,1.114.876,4.065,4.065,0,0,1,.977,2.621,3.917,3.917,0,0,1-.271,1.443,3.974,3.974,0,0,1-.743,1.215,3.569,3.569,0,0,1-1.125.838A3.232,3.232,0,0,1,903.647,247.606Zm-2.578-3.821a3.362,3.362,0,0,0,.186,1.109,3.037,3.037,0,0,0,.525.95,2.539,2.539,0,0,0,.817.657,2.289,2.289,0,0,0,1.061.245,2.227,2.227,0,0,0,1.083-.26,2.643,2.643,0,0,0,.812-.679,3.033,3.033,0,0,0,.509-.949,3.406,3.406,0,0,0,.175-1.073,3.359,3.359,0,0,0-.186-1.109,2.942,2.942,0,0,0-.531-.944,2.665,2.665,0,0,0-.817-.653,2.392,2.392,0,0,0-2.128.011,2.627,2.627,0,0,0-.811.668,3.068,3.068,0,0,0-.515.944A3.347,3.347,0,0,0,901.069,243.785Z" transform="translate(-891.464 -239.965)" fill="#fff"/>
      <path id="Path_53" data-name="Path 53" d="M915.067,241.823v5.752h-.955v-7.535h.743l4.669,5.868V240.05h.955v7.524h-.806Z" transform="translate(-895.563 -239.987)" fill="#fff"/>
      <path id="Path_54" data-name="Path 54" d="M931.942,241.6a1.563,1.563,0,0,0-.34-.287,2.976,2.976,0,0,0-.477-.249,3.354,3.354,0,0,0-.579-.18,3.018,3.018,0,0,0-.652-.069,2.043,2.043,0,0,0-1.289.33,1.092,1.092,0,0,0-.409.9,1,1,0,0,0,.117.509.955.955,0,0,0,.366.345,2.846,2.846,0,0,0,.621.25q.371.106.881.222a9.2,9.2,0,0,1,1.056.293,3.028,3.028,0,0,1,.806.408,1.641,1.641,0,0,1,.51.594,1.918,1.918,0,0,1,.175.859,1.97,1.97,0,0,1-.212.94,1.884,1.884,0,0,1-.579.658,2.492,2.492,0,0,1-.865.382,4.569,4.569,0,0,1-1.082.122,5,5,0,0,1-1.65-.271,4.636,4.636,0,0,1-1.417-.79l.457-.807a2.5,2.5,0,0,0,.44.361,3.54,3.54,0,0,0,.615.324,4.538,4.538,0,0,0,.743.233,3.748,3.748,0,0,0,.832.09,2.318,2.318,0,0,0,1.253-.286,1.061,1.061,0,0,0,.3-1.4,1.217,1.217,0,0,0-.42-.376,3.224,3.224,0,0,0-.684-.282q-.41-.122-.929-.249a9.067,9.067,0,0,1-1.008-.3,2.718,2.718,0,0,1-.727-.382,1.449,1.449,0,0,1-.441-.541,1.8,1.8,0,0,1-.148-.764,2.151,2.151,0,0,1,.2-.954,2,2,0,0,1,.562-.7,2.451,2.451,0,0,1,.859-.43,3.907,3.907,0,0,1,1.082-.143,3.79,3.79,0,0,1,2.473.86Z" transform="translate(-899.31 -239.965)" fill="#fff"/>
      <path id="Path_55" data-name="Path 55" d="M942.051,246.768a2.137,2.137,0,0,0,1.094-.255,2.028,2.028,0,0,0,.695-.664,2.729,2.729,0,0,0,.366-.934,5.365,5.365,0,0,0,.105-1.066v-3.81h.956v3.81a5.858,5.858,0,0,1-.175,1.448,3.474,3.474,0,0,1-.558,1.2,2.694,2.694,0,0,1-.992.822,3.774,3.774,0,0,1-3-.016,2.747,2.747,0,0,1-.992-.844,3.413,3.413,0,0,1-.542-1.21,5.989,5.989,0,0,1-.164-1.406v-3.81h.954v3.81a5.18,5.18,0,0,0,.113,1.087,2.722,2.722,0,0,0,.371.929,1.992,1.992,0,0,0,.69.652A2.115,2.115,0,0,0,942.051,246.768Z" transform="translate(-902.798 -239.987)" fill="#fff"/>
      <path id="Path_56" data-name="Path 56" d="M952.421,247.574v-7.535h.956v6.686h4.2v.85Z" transform="translate(-906.769 -239.987)" fill="#fff"/>
      <path id="Path_57" data-name="Path 57" d="M966.782,240.888h-2.6v6.686h-.955v-6.686h-2.6v-.849h6.156Z" transform="translate(-909.17 -239.987)" fill="#fff"/>
      <path id="Path_58" data-name="Path 58" d="M973.916,240.039h.805l3.078,7.535h-1.02l-.891-2.208h-3.162l-.881,2.208h-1.019Zm1.761,4.585-1.358-3.481-1.4,3.481Z" transform="translate(-912.154 -239.987)" fill="#fff"/>
      <path id="Path_59" data-name="Path 59" d="M988.337,240.888h-2.6v6.686h-.954v-6.686h-2.6v-.849h6.155Z" transform="translate(-915.476 -239.987)" fill="#fff"/>
      <path id="Path_60" data-name="Path 60" d="M994.512,247.574v-7.535h.955v7.535Z" transform="translate(-919.083 -239.987)" fill="#fff"/>
      <path id="Path_61" data-name="Path 61" d="M1003.366,247.606a3.219,3.219,0,0,1-1.449-.324,3.573,3.573,0,0,1-1.119-.86,3.9,3.9,0,0,1-.722-1.225,4.063,4.063,0,0,1-.255-1.412,3.92,3.92,0,0,1,.271-1.443,4,4,0,0,1,.749-1.22,3.592,3.592,0,0,1,1.13-.844,3.229,3.229,0,0,1,1.416-.313,3.1,3.1,0,0,1,1.443.334,3.707,3.707,0,0,1,1.115.876,4.065,4.065,0,0,1,.976,2.621,3.9,3.9,0,0,1-.271,1.443,3.971,3.971,0,0,1-.742,1.215,3.583,3.583,0,0,1-1.125.838A3.235,3.235,0,0,1,1003.366,247.606Zm-2.579-3.821a3.381,3.381,0,0,0,.185,1.109,3.044,3.044,0,0,0,.526.95,2.537,2.537,0,0,0,.816.657,2.289,2.289,0,0,0,1.061.245,2.227,2.227,0,0,0,1.083-.26,2.638,2.638,0,0,0,.812-.679,3.046,3.046,0,0,0,.509-.949,3.4,3.4,0,0,0-.01-2.181,2.964,2.964,0,0,0-.531-.944,2.676,2.676,0,0,0-.818-.653,2.389,2.389,0,0,0-2.127.011,2.616,2.616,0,0,0-.813.668,3.065,3.065,0,0,0-.514.944A3.326,3.326,0,0,0,1000.788,243.785Z" transform="translate(-920.636 -239.965)" fill="#fff"/>
      <path id="Path_62" data-name="Path 62" d="M1014.787,241.823v5.752h-.956v-7.535h.744l4.669,5.868V240.05h.954v7.524h-.806Z" transform="translate(-924.734 -239.987)" fill="#fff"/>
    </g>
  </g>
</svg>
